<svg width="20" height="20" viewBox="0 0 20 20" fill="none" xmlns="http://www.w3.org/2000/svg">
<path fill-rule="evenodd" clip-rule="evenodd" d="M10 0.400024C10.3183 0.400024 10.6235 0.526453 10.8486 0.751496C11.0736 0.97654 11.2 1.28176 11.2 1.60002V3.18762L15.9448 5.08602L17.8636 4.12602C18.1485 3.98376 18.4782 3.96048 18.7802 4.0613C19.0822 4.16212 19.3318 4.37878 19.474 4.66362C19.6163 4.94847 19.6396 5.27816 19.5388 5.58016C19.4379 5.88217 19.2213 6.13176 18.9364 6.27402L17.4568 7.01322L19.5424 13.5172C19.6132 13.7378 19.6185 13.9742 19.5578 14.1978C19.4971 14.4214 19.373 14.6226 19.2004 14.7772C18.321 15.5657 17.1812 16.0012 16 16C14.8189 16.0012 13.679 15.5657 12.7996 14.7772C12.6271 14.6226 12.503 14.4214 12.4423 14.1978C12.3816 13.9742 12.3869 13.7378 12.4576 13.5172L14.5156 7.09842L11.2 5.77242V17.2H13.6C13.9183 17.2 14.2235 17.3265 14.4486 17.5515C14.6736 17.7765 14.8 18.0818 14.8 18.4C14.8 18.7183 14.6736 19.0235 14.4486 19.2486C14.2235 19.4736 13.9183 19.6 13.6 19.6H6.40004C6.08178 19.6 5.77656 19.4736 5.55152 19.2486C5.32647 19.0235 5.20004 18.7183 5.20004 18.4C5.20004 18.0818 5.32647 17.7765 5.55152 17.5515C5.77656 17.3265 6.08178 17.2 6.40004 17.2H8.80004V5.77242L5.48444 7.09842L7.54244 13.5172C7.61315 13.7378 7.61848 13.9742 7.5578 14.1978C7.49711 14.4214 7.373 14.6226 7.20044 14.7772C6.32104 15.5657 5.18117 16.0012 4.00004 16C2.81892 16.0012 1.67905 15.5657 0.799645 14.7772C0.627093 14.6226 0.502981 14.4214 0.442293 14.1978C0.381605 13.9742 0.386937 13.7378 0.457645 13.5172L2.54324 7.01322L1.06364 6.27282C0.789171 6.12481 0.583094 5.87577 0.489065 5.57844C0.395037 5.28112 0.420442 4.95887 0.559901 4.67995C0.699359 4.40104 0.941916 4.18736 1.23619 4.08419C1.53047 3.98102 1.85335 3.99645 2.13644 4.12722L4.05524 5.08602L8.80004 3.18762V1.60002C8.80004 1.28176 8.92647 0.97654 9.15152 0.751496C9.37656 0.526453 9.68178 0.400024 10 0.400024ZM4.00004 10.3288L3.01845 13.3912C3.31844 13.5256 3.64964 13.6 4.00004 13.6C4.35044 13.6 4.68284 13.5256 4.98164 13.3912L4.00004 10.3288ZM16 10.3288L15.0184 13.3912C15.3184 13.5256 15.6496 13.6 16 13.6C16.3504 13.6 16.6828 13.5256 16.9816 13.3912L16 10.3288Z" fill="#111111"/>
</svg>
